<svg width="24" height="24" viewBox="0 0 24 24" fill="none" xmlns="http://www.w3.org/2000/svg">
<g clip-path="url(#clip0_189_10)">
<path d="M10.5 24C7.71523 24 5.04451 22.8938 3.07538 20.9246C1.10625 18.9555 0 16.2848 0 13.5C0 10.7152 1.10625 8.04451 3.07538 6.07538C5.04451 4.10625 7.71523 3 10.5 3C10.7532 3 10.996 3.10057 11.175 3.27958C11.354 3.45859 11.4545 3.70138 11.4545 3.95455V12.5455H20.0455C20.2986 12.5455 20.5414 12.646 20.7204 12.825C20.8994 13.004 21 13.2468 21 13.5C21 16.2848 19.8938 18.9555 17.9246 20.9246C15.9555 22.8938 13.2848 24 10.5 24ZM9.54545 4.96636C7.93724 5.14529 6.41227 5.77478 5.1461 6.78234C3.87994 7.7899 2.92408 9.13458 2.38858 10.6615C1.85308 12.1885 1.75971 13.8356 2.11923 15.4133C2.47874 16.991 3.27653 18.4351 4.42072 19.5793C5.56491 20.7235 7.00899 21.5213 8.58668 21.8808C10.1644 22.2403 11.8115 22.1469 13.3385 21.6114C14.8654 21.0759 16.2101 20.1201 17.2177 18.8539C18.2252 17.5877 18.8547 16.0628 19.0336 14.4545H11.4545C10.9482 14.4545 10.4626 14.2534 10.1046 13.8954C9.74659 13.5374 9.54545 13.0518 9.54545 12.5455V4.96636Z" fill="white"/>
<path d="M23.1667 10H15.6667C15.2246 10 14.8007 9.8244 14.4882 9.51184C14.1756 9.19928 14 8.77536 14 8.33333V0.833333C14 0.61232 14.0878 0.400358 14.2441 0.244078C14.4004 0.0877973 14.6123 0 14.8333 0C17.2645 0 19.5961 0.965771 21.3151 2.68485C23.0342 4.40394 24 6.73552 24 9.16667C24 9.38768 23.9122 9.59964 23.7559 9.75592C23.5996 9.9122 23.3877 10 23.1667 10ZM15.6667 8.33333H22.2833C22.0937 6.64377 21.3356 5.06877 20.1334 3.86657C18.9312 2.66436 17.3562 1.9063 15.6667 1.71667V8.33333Z" fill="white"/>
</g>
<defs>
<clipPath id="clip0_189_10">
<rect width="24" height="24" fill="white"/>
</clipPath>
</defs>
</svg>
